# xmcd
#
# Track frame offsets:
#	150
#	18060
#	38837
#	61300
#	84702
#	111217
#	144127
#	165580
#	188215
#	214915
#	234112
#	255885
#	281060
#	304005
#
# Disc length: 4170 seconds
#
# Revision: 1
# Processed by: cddbd v1.5.2PL0 Copyright (c) Steve Scherf et al.
# Submitted via: audiograbber 1.83.01
#
DISCID=af10480e
DTITLE=Tony Toni Toné - House Of Music
DYEAR=1996
DGENRE=Soul
TTITLE0=Thinking Of You
TTITLE1=Top Notch
TTITLE2=Let's Get Down
TTITLE3=Til Last Summer
TTITLE4=Lovin' You
TTITLE5=Still A Man
TTITLE6=Don't Fall In Love
TTITLE7=Holy Smokes and Gee Whiz
TTITLE8=Annie May
TTITLE9=Let Me Know
TTITLE10=Tossin' and Turnin'
TTITLE11=Wild Child
TTITLE12=Party Don't Cry
TTITLE13=Lovin' You (Interlude)
EXTD=www.RapMusicGuide.com\n
EXTT0=
EXTT1=
EXTT2=
EXTT3=
EXTT4=
EXTT5=
EXTT6=
EXTT7=
EXTT8=
EXTT9=
EXTT10=
EXTT11=
EXTT12=
EXTT13=
PLAYORDER=
